<mxfile host="app.diagrams.net" modified="2024-07-18T09:38:27.772Z" agent="Mozilla/5.0 (Macintosh; Intel Mac OS X 10_15_7) AppleWebKit/537.36 (KHTML, like Gecko) Chrome/119.0.0.0 Safari/537.36" etag="qXvqMkjBQh3rJKKdstho" version="24.4.9" type="github">
  <diagram name="第 1 页" id="8TyQ_WzbEVN8jgP6hKr9">
    <mxGraphModel dx="2589" dy="827" grid="1" gridSize="10" guides="1" tooltips="1" connect="1" arrows="1" fold="1" page="1" pageScale="1" pageWidth="827" pageHeight="1169" math="0" shadow="0">
      <root>
        <mxCell id="0" />
        <mxCell id="1" parent="0" />
        <mxCell id="jp1PTQuWplXu-e_FXXWB-2" value="ruku项目" style="rounded=1;whiteSpace=wrap;html=1;" vertex="1" parent="1">
          <mxGeometry x="70" y="30" width="120" height="60" as="geometry" />
        </mxCell>
        <mxCell id="jp1PTQuWplXu-e_FXXWB-3" value="Iceberg" style="shape=cylinder3;whiteSpace=wrap;html=1;boundedLbl=1;backgroundOutline=1;size=15;" vertex="1" parent="1">
          <mxGeometry x="-650" y="360" width="60" height="80" as="geometry" />
        </mxCell>
        <mxCell id="jp1PTQuWplXu-e_FXXWB-5" value="Hive" style="shape=cylinder3;whiteSpace=wrap;html=1;boundedLbl=1;backgroundOutline=1;size=15;" vertex="1" parent="1">
          <mxGeometry x="640" y="474" width="60" height="80" as="geometry" />
        </mxCell>
        <mxCell id="jp1PTQuWplXu-e_FXXWB-34" style="edgeStyle=orthogonalEdgeStyle;rounded=0;orthogonalLoop=1;jettySize=auto;html=1;exitX=1;exitY=0.5;exitDx=0;exitDy=0;exitPerimeter=0;entryX=0;entryY=0.5;entryDx=0;entryDy=0;" edge="1" parent="1" source="jp1PTQuWplXu-e_FXXWB-6" target="jp1PTQuWplXu-e_FXXWB-33">
          <mxGeometry relative="1" as="geometry" />
        </mxCell>
        <mxCell id="jp1PTQuWplXu-e_FXXWB-6" value="Kafka" style="shape=cylinder3;whiteSpace=wrap;html=1;boundedLbl=1;backgroundOutline=1;size=15;" vertex="1" parent="1">
          <mxGeometry x="46" y="1190" width="60" height="80" as="geometry" />
        </mxCell>
        <mxCell id="jp1PTQuWplXu-e_FXXWB-38" value="" style="edgeStyle=orthogonalEdgeStyle;rounded=0;orthogonalLoop=1;jettySize=auto;html=1;" edge="1" parent="1" source="jp1PTQuWplXu-e_FXXWB-8" target="jp1PTQuWplXu-e_FXXWB-37">
          <mxGeometry relative="1" as="geometry" />
        </mxCell>
        <mxCell id="jp1PTQuWplXu-e_FXXWB-8" value="Kafka" style="shape=cylinder3;whiteSpace=wrap;html=1;boundedLbl=1;backgroundOutline=1;size=15;" vertex="1" parent="1">
          <mxGeometry x="69" y="1560" width="60" height="80" as="geometry" />
        </mxCell>
        <mxCell id="jp1PTQuWplXu-e_FXXWB-9" value="Nginx(NLog服务)" style="rounded=1;whiteSpace=wrap;html=1;" vertex="1" parent="1">
          <mxGeometry x="-115" y="1570" width="120" height="60" as="geometry" />
        </mxCell>
        <mxCell id="jp1PTQuWplXu-e_FXXWB-10" value="DataX" style="rounded=1;whiteSpace=wrap;html=1;" vertex="1" parent="1">
          <mxGeometry x="344" y="484" width="120" height="60" as="geometry" />
        </mxCell>
        <mxCell id="jp1PTQuWplXu-e_FXXWB-11" value="merger" style="rounded=1;whiteSpace=wrap;html=1;" vertex="1" parent="1">
          <mxGeometry x="590" y="370" width="120" height="60" as="geometry" />
        </mxCell>
        <mxCell id="jp1PTQuWplXu-e_FXXWB-16" style="edgeStyle=orthogonalEdgeStyle;rounded=0;orthogonalLoop=1;jettySize=auto;html=1;exitX=0;exitY=0.5;exitDx=0;exitDy=0;exitPerimeter=0;entryX=0;entryY=0.5;entryDx=0;entryDy=0;" edge="1" parent="1" source="jp1PTQuWplXu-e_FXXWB-15" target="jp1PTQuWplXu-e_FXXWB-11">
          <mxGeometry relative="1" as="geometry" />
        </mxCell>
        <mxCell id="jp1PTQuWplXu-e_FXXWB-15" value="Cos" style="shape=cylinder3;whiteSpace=wrap;html=1;boundedLbl=1;backgroundOutline=1;size=15;" vertex="1" parent="1">
          <mxGeometry x="580" y="474" width="60" height="80" as="geometry" />
        </mxCell>
        <mxCell id="jp1PTQuWplXu-e_FXXWB-17" style="edgeStyle=orthogonalEdgeStyle;rounded=0;orthogonalLoop=1;jettySize=auto;html=1;exitX=1;exitY=0.5;exitDx=0;exitDy=0;entryX=1;entryY=0.5;entryDx=0;entryDy=0;entryPerimeter=0;" edge="1" parent="1" source="jp1PTQuWplXu-e_FXXWB-11" target="jp1PTQuWplXu-e_FXXWB-5">
          <mxGeometry relative="1" as="geometry" />
        </mxCell>
        <mxCell id="jp1PTQuWplXu-e_FXXWB-19" style="edgeStyle=orthogonalEdgeStyle;rounded=0;orthogonalLoop=1;jettySize=auto;html=1;exitX=1;exitY=0.5;exitDx=0;exitDy=0;exitPerimeter=0;entryX=0;entryY=0.5;entryDx=0;entryDy=0;" edge="1" parent="1" source="jp1PTQuWplXu-e_FXXWB-18" target="jp1PTQuWplXu-e_FXXWB-10">
          <mxGeometry relative="1" as="geometry" />
        </mxCell>
        <mxCell id="jp1PTQuWplXu-e_FXXWB-18" value="Kafka" style="shape=cylinder3;whiteSpace=wrap;html=1;boundedLbl=1;backgroundOutline=1;size=15;" vertex="1" parent="1">
          <mxGeometry x="230" y="474" width="60" height="80" as="geometry" />
        </mxCell>
        <mxCell id="jp1PTQuWplXu-e_FXXWB-20" style="edgeStyle=orthogonalEdgeStyle;rounded=0;orthogonalLoop=1;jettySize=auto;html=1;exitX=1;exitY=0.5;exitDx=0;exitDy=0;entryX=0;entryY=0.5;entryDx=0;entryDy=0;entryPerimeter=0;" edge="1" parent="1" source="jp1PTQuWplXu-e_FXXWB-10" target="jp1PTQuWplXu-e_FXXWB-15">
          <mxGeometry relative="1" as="geometry" />
        </mxCell>
        <mxCell id="jp1PTQuWplXu-e_FXXWB-22" style="edgeStyle=orthogonalEdgeStyle;rounded=0;orthogonalLoop=1;jettySize=auto;html=1;exitX=0.25;exitY=1;exitDx=0;exitDy=0;dashed=1;" edge="1" parent="1" source="jp1PTQuWplXu-e_FXXWB-21" target="jp1PTQuWplXu-e_FXXWB-10">
          <mxGeometry relative="1" as="geometry" />
        </mxCell>
        <mxCell id="jp1PTQuWplXu-e_FXXWB-23" style="edgeStyle=orthogonalEdgeStyle;rounded=0;orthogonalLoop=1;jettySize=auto;html=1;exitX=0.75;exitY=1;exitDx=0;exitDy=0;dashed=1;" edge="1" parent="1" source="jp1PTQuWplXu-e_FXXWB-21" target="jp1PTQuWplXu-e_FXXWB-11">
          <mxGeometry relative="1" as="geometry" />
        </mxCell>
        <mxCell id="jp1PTQuWplXu-e_FXXWB-21" value="Etl service" style="rounded=1;whiteSpace=wrap;html=1;" vertex="1" parent="1">
          <mxGeometry x="440" y="270" width="120" height="60" as="geometry" />
        </mxCell>
        <mxCell id="jp1PTQuWplXu-e_FXXWB-26" value="Pod" style="rounded=1;whiteSpace=wrap;html=1;" vertex="1" parent="1">
          <mxGeometry x="24" y="484" width="120" height="60" as="geometry" />
        </mxCell>
        <mxCell id="jp1PTQuWplXu-e_FXXWB-27" style="edgeStyle=orthogonalEdgeStyle;rounded=0;orthogonalLoop=1;jettySize=auto;html=1;exitX=1;exitY=0.5;exitDx=0;exitDy=0;entryX=0;entryY=0.5;entryDx=0;entryDy=0;entryPerimeter=0;" edge="1" parent="1" source="jp1PTQuWplXu-e_FXXWB-26" target="jp1PTQuWplXu-e_FXXWB-18">
          <mxGeometry relative="1" as="geometry" />
        </mxCell>
        <mxCell id="jp1PTQuWplXu-e_FXXWB-49" style="edgeStyle=orthogonalEdgeStyle;rounded=0;orthogonalLoop=1;jettySize=auto;html=1;exitX=0;exitY=0.5;exitDx=0;exitDy=0;exitPerimeter=0;entryX=0.75;entryY=0;entryDx=0;entryDy=0;dashed=1;dashPattern=1 1;" edge="1" parent="1" source="jp1PTQuWplXu-e_FXXWB-30" target="jp1PTQuWplXu-e_FXXWB-11">
          <mxGeometry relative="1" as="geometry" />
        </mxCell>
        <mxCell id="jp1PTQuWplXu-e_FXXWB-30" value="&lt;span style=&quot;text-wrap: nowrap;&quot;&gt;实时日志ETL报警群&lt;/span&gt;&lt;br style=&quot;text-wrap: nowrap;&quot;&gt;&lt;span style=&quot;text-wrap: nowrap;&quot;&gt;fast_etl_merger_*&lt;/span&gt;" style="shape=note;whiteSpace=wrap;html=1;backgroundOutline=1;darkOpacity=0.05;" vertex="1" parent="1">
          <mxGeometry x="730" y="230" width="180" height="80" as="geometry" />
        </mxCell>
        <mxCell id="jp1PTQuWplXu-e_FXXWB-32" style="edgeStyle=orthogonalEdgeStyle;rounded=0;orthogonalLoop=1;jettySize=auto;html=1;exitX=1;exitY=0.5;exitDx=0;exitDy=0;entryX=0;entryY=0.5;entryDx=0;entryDy=0;entryPerimeter=0;" edge="1" parent="1" source="jp1PTQuWplXu-e_FXXWB-9" target="jp1PTQuWplXu-e_FXXWB-8">
          <mxGeometry relative="1" as="geometry" />
        </mxCell>
        <mxCell id="jp1PTQuWplXu-e_FXXWB-33" value="feature-servicelog" style="rounded=1;whiteSpace=wrap;html=1;" vertex="1" parent="1">
          <mxGeometry x="186" y="1200" width="116" height="60" as="geometry" />
        </mxCell>
        <mxCell id="jp1PTQuWplXu-e_FXXWB-35" value="Iceberg" style="shape=cylinder3;whiteSpace=wrap;html=1;boundedLbl=1;backgroundOutline=1;size=15;" vertex="1" parent="1">
          <mxGeometry x="396" y="1190" width="60" height="80" as="geometry" />
        </mxCell>
        <mxCell id="jp1PTQuWplXu-e_FXXWB-36" style="edgeStyle=orthogonalEdgeStyle;rounded=0;orthogonalLoop=1;jettySize=auto;html=1;exitX=1;exitY=0.5;exitDx=0;exitDy=0;entryX=0;entryY=0.5;entryDx=0;entryDy=0;entryPerimeter=0;" edge="1" parent="1" source="jp1PTQuWplXu-e_FXXWB-33" target="jp1PTQuWplXu-e_FXXWB-35">
          <mxGeometry relative="1" as="geometry" />
        </mxCell>
        <mxCell id="jp1PTQuWplXu-e_FXXWB-40" style="edgeStyle=orthogonalEdgeStyle;rounded=0;orthogonalLoop=1;jettySize=auto;html=1;exitX=1;exitY=0.5;exitDx=0;exitDy=0;" edge="1" parent="1" source="jp1PTQuWplXu-e_FXXWB-37" target="jp1PTQuWplXu-e_FXXWB-39">
          <mxGeometry relative="1" as="geometry" />
        </mxCell>
        <mxCell id="jp1PTQuWplXu-e_FXXWB-37" value="fast-realetl-flink" style="rounded=1;whiteSpace=wrap;html=1;" vertex="1" parent="1">
          <mxGeometry x="185" y="1570" width="120" height="60" as="geometry" />
        </mxCell>
        <mxCell id="jp1PTQuWplXu-e_FXXWB-42" style="edgeStyle=orthogonalEdgeStyle;rounded=0;orthogonalLoop=1;jettySize=auto;html=1;exitX=1;exitY=0.5;exitDx=0;exitDy=0;exitPerimeter=0;" edge="1" parent="1" source="jp1PTQuWplXu-e_FXXWB-39" target="jp1PTQuWplXu-e_FXXWB-41">
          <mxGeometry relative="1" as="geometry" />
        </mxCell>
        <mxCell id="jp1PTQuWplXu-e_FXXWB-39" value="Kafka" style="shape=cylinder3;whiteSpace=wrap;html=1;boundedLbl=1;backgroundOutline=1;size=15;" vertex="1" parent="1">
          <mxGeometry x="377" y="1560" width="60" height="80" as="geometry" />
        </mxCell>
        <mxCell id="jp1PTQuWplXu-e_FXXWB-41" value="kafka_sync_to_datalake&lt;br&gt;lakex_demo" style="rounded=1;whiteSpace=wrap;html=1;" vertex="1" parent="1">
          <mxGeometry x="495" y="1570" width="120" height="60" as="geometry" />
        </mxCell>
        <mxCell id="jp1PTQuWplXu-e_FXXWB-43" value="Iceberg" style="shape=cylinder3;whiteSpace=wrap;html=1;boundedLbl=1;backgroundOutline=1;size=15;" vertex="1" parent="1">
          <mxGeometry x="685" y="1560" width="60" height="80" as="geometry" />
        </mxCell>
        <mxCell id="jp1PTQuWplXu-e_FXXWB-44" style="edgeStyle=orthogonalEdgeStyle;rounded=0;orthogonalLoop=1;jettySize=auto;html=1;exitX=1;exitY=0.5;exitDx=0;exitDy=0;entryX=0;entryY=0.5;entryDx=0;entryDy=0;entryPerimeter=0;" edge="1" parent="1" source="jp1PTQuWplXu-e_FXXWB-41" target="jp1PTQuWplXu-e_FXXWB-43">
          <mxGeometry relative="1" as="geometry" />
        </mxCell>
        <mxCell id="jp1PTQuWplXu-e_FXXWB-45" value="动态分区发现" style="text;html=1;align=center;verticalAlign=middle;resizable=0;points=[];autosize=1;strokeColor=none;fillColor=none;" vertex="1" parent="1">
          <mxGeometry x="202" y="1160" width="100" height="30" as="geometry" />
        </mxCell>
        <mxCell id="jp1PTQuWplXu-e_FXXWB-46" value="Pod" style="rounded=1;whiteSpace=wrap;html=1;" vertex="1" parent="1">
          <mxGeometry x="-160" y="1200" width="120" height="60" as="geometry" />
        </mxCell>
        <mxCell id="jp1PTQuWplXu-e_FXXWB-47" style="edgeStyle=orthogonalEdgeStyle;rounded=0;orthogonalLoop=1;jettySize=auto;html=1;exitX=1;exitY=0.5;exitDx=0;exitDy=0;entryX=0;entryY=0.5;entryDx=0;entryDy=0;entryPerimeter=0;" edge="1" parent="1" source="jp1PTQuWplXu-e_FXXWB-46" target="jp1PTQuWplXu-e_FXXWB-6">
          <mxGeometry relative="1" as="geometry" />
        </mxCell>
        <mxCell id="jp1PTQuWplXu-e_FXXWB-48" value="入湖报警群&lt;br&gt;md&amp;nbsp; cn done 水位线告警" style="shape=note;whiteSpace=wrap;html=1;backgroundOutline=1;darkOpacity=0.05;" vertex="1" parent="1">
          <mxGeometry x="376" y="1057.5" width="150" height="65" as="geometry" />
        </mxCell>
        <mxCell id="jp1PTQuWplXu-e_FXXWB-50" value="无消费延迟告警" style="shape=note;whiteSpace=wrap;html=1;backgroundOutline=1;darkOpacity=0.05;" vertex="1" parent="1">
          <mxGeometry x="36" y="1060" width="80" height="100" as="geometry" />
        </mxCell>
        <mxCell id="jp1PTQuWplXu-e_FXXWB-51" value="入湖告警群&lt;br&gt;md 入湖程序告警" style="shape=note;whiteSpace=wrap;html=1;backgroundOutline=1;darkOpacity=0.05;" vertex="1" parent="1">
          <mxGeometry x="212" y="1040" width="80" height="100" as="geometry" />
        </mxCell>
        <mxCell id="jp1PTQuWplXu-e_FXXWB-52" value="LB" style="rounded=1;whiteSpace=wrap;html=1;" vertex="1" parent="1">
          <mxGeometry x="-285" y="1570" width="120" height="60" as="geometry" />
        </mxCell>
        <mxCell id="jp1PTQuWplXu-e_FXXWB-53" value="nlog集群健康监控" style="shape=note;whiteSpace=wrap;html=1;backgroundOutline=1;darkOpacity=0.05;" vertex="1" parent="1">
          <mxGeometry x="-135" y="1460" width="140" height="60" as="geometry" />
        </mxCell>
        <mxCell id="jp1PTQuWplXu-e_FXXWB-54" value="部分流量看板" style="shape=note;whiteSpace=wrap;html=1;backgroundOutline=1;darkOpacity=0.05;" vertex="1" parent="1">
          <mxGeometry x="-265" y="1470" width="80" height="50" as="geometry" />
        </mxCell>
        <mxCell id="jp1PTQuWplXu-e_FXXWB-57" style="edgeStyle=orthogonalEdgeStyle;rounded=0;orthogonalLoop=1;jettySize=auto;html=1;exitX=0.5;exitY=0;exitDx=0;exitDy=0;entryX=0.5;entryY=1;entryDx=0;entryDy=0;" edge="1" parent="1" source="jp1PTQuWplXu-e_FXXWB-56" target="jp1PTQuWplXu-e_FXXWB-9">
          <mxGeometry relative="1" as="geometry" />
        </mxCell>
        <mxCell id="jp1PTQuWplXu-e_FXXWB-56" value="done标记" style="rounded=1;whiteSpace=wrap;html=1;" vertex="1" parent="1">
          <mxGeometry x="-115" y="1690" width="120" height="60" as="geometry" />
        </mxCell>
        <mxCell id="jp1PTQuWplXu-e_FXXWB-58" value="入湖告警群&lt;br&gt;done告警发送失败" style="shape=note;whiteSpace=wrap;html=1;backgroundOutline=1;darkOpacity=0.05;" vertex="1" parent="1">
          <mxGeometry x="-105" y="1780" width="120" height="100" as="geometry" />
        </mxCell>
        <mxCell id="jp1PTQuWplXu-e_FXXWB-59" value="实时日志ETL告警群&lt;br&gt;消费延迟告警" style="shape=note;whiteSpace=wrap;html=1;backgroundOutline=1;darkOpacity=0.05;" vertex="1" parent="1">
          <mxGeometry x="205" y="1420" width="80" height="100" as="geometry" />
        </mxCell>
        <mxCell id="jp1PTQuWplXu-e_FXXWB-60" value="未实现分区动态发现" style="text;html=1;align=center;verticalAlign=middle;resizable=0;points=[];autosize=1;strokeColor=none;fillColor=none;" vertex="1" parent="1">
          <mxGeometry x="180" y="1648" width="130" height="30" as="geometry" />
        </mxCell>
        <mxCell id="jp1PTQuWplXu-e_FXXWB-61" value="入湖告警群&lt;br&gt;消费延迟告警&lt;br&gt;解析错误率告警&lt;br&gt;QPS告警" style="shape=note;whiteSpace=wrap;html=1;backgroundOutline=1;darkOpacity=0.05;" vertex="1" parent="1">
          <mxGeometry x="520" y="1440" width="80" height="100" as="geometry" />
        </mxCell>
        <mxCell id="jp1PTQuWplXu-e_FXXWB-62" value="Hive" style="shape=cylinder3;whiteSpace=wrap;html=1;boundedLbl=1;backgroundOutline=1;size=15;" vertex="1" parent="1">
          <mxGeometry x="745" y="1560" width="60" height="80" as="geometry" />
        </mxCell>
        <mxCell id="jp1PTQuWplXu-e_FXXWB-63" value="入湖告警群&lt;br&gt;done 标记就绪告警" style="shape=note;whiteSpace=wrap;html=1;backgroundOutline=1;darkOpacity=0.05;" vertex="1" parent="1">
          <mxGeometry x="565" y="1690" width="80" height="100" as="geometry" />
        </mxCell>
        <mxCell id="jp1PTQuWplXu-e_FXXWB-64" value="Pod" style="rounded=1;whiteSpace=wrap;html=1;" vertex="1" parent="1">
          <mxGeometry x="46" y="891" width="120" height="60" as="geometry" />
        </mxCell>
        <mxCell id="jp1PTQuWplXu-e_FXXWB-68" style="edgeStyle=orthogonalEdgeStyle;rounded=0;orthogonalLoop=1;jettySize=auto;html=1;exitX=1;exitY=0.5;exitDx=0;exitDy=0;exitPerimeter=0;entryX=0;entryY=0.5;entryDx=0;entryDy=0;" edge="1" parent="1" source="jp1PTQuWplXu-e_FXXWB-65" target="jp1PTQuWplXu-e_FXXWB-67">
          <mxGeometry relative="1" as="geometry" />
        </mxCell>
        <mxCell id="jp1PTQuWplXu-e_FXXWB-65" value="Kafka" style="shape=cylinder3;whiteSpace=wrap;html=1;boundedLbl=1;backgroundOutline=1;size=15;" vertex="1" parent="1">
          <mxGeometry x="252" y="881" width="60" height="80" as="geometry" />
        </mxCell>
        <mxCell id="jp1PTQuWplXu-e_FXXWB-67" value="longhu" style="rounded=1;whiteSpace=wrap;html=1;" vertex="1" parent="1">
          <mxGeometry x="377" y="891" width="120" height="60" as="geometry" />
        </mxCell>
        <mxCell id="jp1PTQuWplXu-e_FXXWB-73" style="edgeStyle=orthogonalEdgeStyle;rounded=0;orthogonalLoop=1;jettySize=auto;html=1;exitX=0;exitY=0.5;exitDx=0;exitDy=0;exitPerimeter=0;entryX=0;entryY=0.5;entryDx=0;entryDy=0;" edge="1" parent="1" source="jp1PTQuWplXu-e_FXXWB-69" target="jp1PTQuWplXu-e_FXXWB-72">
          <mxGeometry relative="1" as="geometry" />
        </mxCell>
        <mxCell id="jp1PTQuWplXu-e_FXXWB-69" value="cos" style="shape=cylinder3;whiteSpace=wrap;html=1;boundedLbl=1;backgroundOutline=1;size=15;" vertex="1" parent="1">
          <mxGeometry x="585" y="881" width="60" height="80" as="geometry" />
        </mxCell>
        <mxCell id="jp1PTQuWplXu-e_FXXWB-70" style="edgeStyle=orthogonalEdgeStyle;rounded=0;orthogonalLoop=1;jettySize=auto;html=1;exitX=1;exitY=0.5;exitDx=0;exitDy=0;entryX=0;entryY=0.5;entryDx=0;entryDy=0;entryPerimeter=0;" edge="1" parent="1" source="jp1PTQuWplXu-e_FXXWB-67" target="jp1PTQuWplXu-e_FXXWB-69">
          <mxGeometry relative="1" as="geometry" />
        </mxCell>
        <mxCell id="jp1PTQuWplXu-e_FXXWB-71" value="Hive" style="shape=cylinder3;whiteSpace=wrap;html=1;boundedLbl=1;backgroundOutline=1;size=15;" vertex="1" parent="1">
          <mxGeometry x="645" y="881" width="60" height="80" as="geometry" />
        </mxCell>
        <mxCell id="jp1PTQuWplXu-e_FXXWB-72" value="MR程序 Merge" style="rounded=1;whiteSpace=wrap;html=1;" vertex="1" parent="1">
          <mxGeometry x="590" y="791" width="120" height="60" as="geometry" />
        </mxCell>
        <mxCell id="jp1PTQuWplXu-e_FXXWB-74" style="edgeStyle=orthogonalEdgeStyle;rounded=0;orthogonalLoop=1;jettySize=auto;html=1;exitX=1;exitY=0.5;exitDx=0;exitDy=0;entryX=1;entryY=0.5;entryDx=0;entryDy=0;entryPerimeter=0;" edge="1" parent="1" source="jp1PTQuWplXu-e_FXXWB-72" target="jp1PTQuWplXu-e_FXXWB-71">
          <mxGeometry relative="1" as="geometry" />
        </mxCell>
        <mxCell id="jp1PTQuWplXu-e_FXXWB-75" value="flink程序， log数据入cos" style="text;html=1;align=center;verticalAlign=middle;resizable=0;points=[];autosize=1;strokeColor=none;fillColor=none;" vertex="1" parent="1">
          <mxGeometry x="363" y="851" width="150" height="30" as="geometry" />
        </mxCell>
        <mxCell id="jp1PTQuWplXu-e_FXXWB-76" value="uda调度" style="text;html=1;align=center;verticalAlign=middle;resizable=0;points=[];autosize=1;strokeColor=none;fillColor=none;" vertex="1" parent="1">
          <mxGeometry x="615" y="745" width="70" height="30" as="geometry" />
        </mxCell>
        <mxCell id="jp1PTQuWplXu-e_FXXWB-79" style="edgeStyle=orthogonalEdgeStyle;rounded=0;orthogonalLoop=1;jettySize=auto;html=1;exitX=0;exitY=0.5;exitDx=0;exitDy=0;entryX=0.5;entryY=1;entryDx=0;entryDy=0;" edge="1" parent="1" source="jp1PTQuWplXu-e_FXXWB-77" target="jp1PTQuWplXu-e_FXXWB-10">
          <mxGeometry relative="1" as="geometry" />
        </mxCell>
        <mxCell id="jp1PTQuWplXu-e_FXXWB-77" value="uda定时任务&lt;br&gt;天级表，分区校验和add partition" style="whiteSpace=wrap;html=1;" vertex="1" parent="1">
          <mxGeometry x="460" y="620" width="120" height="60" as="geometry" />
        </mxCell>
        <mxCell id="jp1PTQuWplXu-e_FXXWB-81" style="edgeStyle=orthogonalEdgeStyle;rounded=0;orthogonalLoop=1;jettySize=auto;html=1;exitX=0.5;exitY=1;exitDx=0;exitDy=0;exitPerimeter=0;" edge="1" parent="1" source="jp1PTQuWplXu-e_FXXWB-80">
          <mxGeometry relative="1" as="geometry">
            <mxPoint x="400" y="480" as="targetPoint" />
          </mxGeometry>
        </mxCell>
        <mxCell id="jp1PTQuWplXu-e_FXXWB-80" value="&lt;span style=&quot;text-wrap: nowrap;&quot;&gt;实时日志ETL报警群&lt;/span&gt;&lt;br style=&quot;text-wrap: nowrap;&quot;&gt;&lt;span style=&quot;text-wrap: nowrap;&quot;&gt;load_log_xxx_*&lt;/span&gt;" style="shape=note;whiteSpace=wrap;html=1;backgroundOutline=1;darkOpacity=0.05;" vertex="1" parent="1">
          <mxGeometry x="192" y="330" width="180" height="80" as="geometry" />
        </mxCell>
        <mxCell id="jp1PTQuWplXu-e_FXXWB-82" value="&lt;span style=&quot;text-wrap: nowrap;&quot;&gt;实时日志ETL报警群&lt;br&gt;服务存活告警&lt;br&gt;&lt;br&gt;&lt;/span&gt;" style="shape=note;whiteSpace=wrap;html=1;backgroundOutline=1;darkOpacity=0.05;" vertex="1" parent="1">
          <mxGeometry x="460" y="140" width="170" height="100" as="geometry" />
        </mxCell>
        <mxCell id="jp1PTQuWplXu-e_FXXWB-83" value="&lt;span style=&quot;text-wrap: nowrap;&quot;&gt;Dataops报警群&lt;br&gt;merger线程阻塞告警&lt;br&gt;&lt;br&gt;&lt;/span&gt;" style="shape=note;whiteSpace=wrap;html=1;backgroundOutline=1;darkOpacity=0.05;" vertex="1" parent="1">
          <mxGeometry x="226" y="140" width="170" height="100" as="geometry" />
        </mxCell>
        <mxCell id="jp1PTQuWplXu-e_FXXWB-84" value="dataops告警群&lt;br&gt;Datax任务巡检" style="shape=note;whiteSpace=wrap;html=1;backgroundOutline=1;darkOpacity=0.05;" vertex="1" parent="1">
          <mxGeometry x="827" y="554" width="80" height="100" as="geometry" />
        </mxCell>
      </root>
    </mxGraphModel>
  </diagram>
</mxfile>
